<svg width="16" height="16" viewBox="0 0 16 16" fill="none" xmlns="http://www.w3.org/2000/svg">
<path fill-rule="evenodd" clip-rule="evenodd" d="M7.33342 1.6665C10.463 1.6665 13.0001 4.20356 13.0001 7.33317C13.0001 8.51609 12.6376 9.61436 12.0177 10.523L14.2785 12.7839C14.4087 12.9141 14.4087 13.1251 14.2785 13.2553L13.7128 13.821C13.5826 13.9512 13.3716 13.9512 13.2414 13.821L11.04 11.6196C10.0464 12.4795 8.75067 12.9998 7.33342 12.9998C4.2038 12.9998 1.66675 10.4628 1.66675 7.33317C1.66675 4.20356 4.2038 1.6665 7.33342 1.6665ZM7.3334 3.06652C4.97698 3.06652 3.06673 4.97677 3.06673 7.33319C3.06673 9.6896 4.97698 11.5999 7.3334 11.5999C9.68981 11.5999 11.6001 9.6896 11.6001 7.33319C11.6001 4.97677 9.68981 3.06652 7.3334 3.06652Z" fill="#8A919F"/>
</svg>
